<svg xmlns="http://www.w3.org/2000/svg" version="1.1" xmlns:xlink="http://www.w3.org/1999/xlink" xmlns:svgjs="http://svgjs.com/svgjs" width="1440" height="560" preserveAspectRatio="none" viewBox="0 0 1440 560"><g mask="url(&quot;#SvgjsMask1012&quot;)" fill="none"><rect width="1440" height="560" x="0" y="0" fill="#0e2a47"></rect><path d="M713.48 183.8L744.36 183.8L744.36 214.18L713.48 214.18z" stroke="rgba(193, 165, 3, 1)"></path><path d="M1220.28 214.78a37.46 37.46 0 1 0-46.05 59.1z" fill="#037b0b"></path><path d="M1346.64 370.32L1369.24 370.32L1369.24 424.14L1346.64 424.14z" stroke="rgba(0, 217, 255, 1)"></path><path d="M1372.26 344.3a18.05 18.05 0 1 0 28.1-22.66z" fill="rgba(193, 165, 3, 1)"></path><path d="M832.13 349.14L869.11 349.14L869.11 404.67L832.13 404.67z" fill="#037b0b"></path><path d="M774.26 154.77L778.01 154.77L778.01 158.52L774.26 158.52z" stroke="rgba(0, 217, 255, 1)"></path><path d="M137.32 410.87a34.9 34.9 0 1 0 13.5-68.48z" stroke="#037b0b"></path><path d="M640.9 336.33L688.69 336.33L688.69 356.64L640.9 356.64z" fill="rgba(193, 165, 3, 1)"></path><path d="M728.22 412.68 a4.86 4.86 0 1 0 9.72 0 a4.86 4.86 0 1 0 -9.72 0z" stroke="rgba(193, 165, 3, 1)"></path><path d="M181.27 118.75a44.16 44.16 0 1 0-31.71-82.43z" fill="rgba(0, 217, 255, 1)"></path><path d="M599.61 458.77L645.78 458.77L645.78 504.94L599.61 504.94z" stroke="#037b0b"></path><path d="M773.89 65.3a12.57 12.57 0 1 0-21.29 13.36z" fill="#037b0b"></path><path d="M820.56 350.95 a23.99 23.99 0 1 0 47.98 0 a23.99 23.99 0 1 0 -47.98 0z" stroke="rgba(193, 165, 3, 1)"></path><path d="M928.19 1.9L959.52 1.9L959.52 33.23L928.19 33.23z" stroke="rgba(0, 217, 255, 1)"></path><path d="M15.48 497.21L32.36 497.21L32.36 527.58L15.48 527.58z" stroke="#037b0b"></path><path d="M627.53 488.72L669.18 488.72L669.18 530.37L627.53 530.37z" stroke="rgba(0, 217, 255, 1)"></path><path d="M968.67 465.75a51.79 51.79 0 1 0 97.28 35.58z" fill="#037b0b"></path><path d="M820.42 176.77L834.13 176.77L834.13 202.06L820.42 202.06z" fill="#037b0b"></path><path d="M1168.16 327a50.25 50.25 0 1 0-27.23 96.74z" stroke="rgba(193, 165, 3, 1)"></path><path d="M395.01 556.31L411.12 556.31L411.12 572.42L395.01 572.42z" fill="#037b0b"></path><path d="M1259.54 252.86 a22.78 22.78 0 1 0 45.56 0 a22.78 22.78 0 1 0 -45.56 0z" stroke="#037b0b"></path><path d="M530.91 71.58L574.38 71.58L574.38 115.05L530.91 115.05z" fill="rgba(0, 217, 255, 1)"></path><path d="M349.8 147.82a22.31 22.31 0 1 0-4.77-44.37z" fill="rgba(0, 217, 255, 1)"></path><path d="M475.79 123.05L490.97 123.05L490.97 138.23L475.79 138.23z" stroke="#037b0b"></path><path d="M563.83 87.26 a45.11 45.11 0 1 0 90.22 0 a45.11 45.11 0 1 0 -90.22 0z" stroke="rgba(0, 217, 255, 1)"></path><path d="M302.38 441.81L353.07 441.81L353.07 456.2L302.38 456.2z" fill="#037b0b"></path><path d="M533.13 383.77 a23.48 23.48 0 1 0 46.96 0 a23.48 23.48 0 1 0 -46.96 0z" stroke="#037b0b"></path><path d="M1046.29 199.44L1082.93 199.44L1082.93 236.08L1046.29 236.08z" fill="#037b0b"></path><path d="M1086.59 153.76L1127.62 153.76L1127.62 180.64L1086.59 180.64z" stroke="rgba(193, 165, 3, 1)"></path><path d="M78.74 541.39L97.54 541.39L97.54 568.27L78.74 568.27z" stroke="#037b0b"></path><path d="M160.94 179.27 a39.59 39.59 0 1 0 79.18 0 a39.59 39.59 0 1 0 -79.18 0z" stroke="rgba(0, 217, 255, 1)"></path><path d="M464.15 176.27L518.8 176.27L518.8 230.92L464.15 230.92z" stroke="rgba(193, 165, 3, 1)"></path><path d="M1163.78 425.81L1188.75 425.81L1188.75 438.5L1163.78 438.5z" fill="rgba(0, 217, 255, 1)"></path></g><defs><mask id="SvgjsMask1012"><rect width="1440" height="560" fill="#ffffff"></rect></mask></defs></svg>